<svg t="1711633775771" class="icon" viewBox="0 0 1072 1024" version="1.1" xmlns="http://www.w3.org/2000/svg" p-id="1239" width="200" height="200"><path d="M591.872 369.915937a18.497016 18.497016 0 0 1-18.497016-18.497016V166.465016c0-71.509333-57.969778-129.470984-129.470984-129.470984-71.509333 0-129.470984 57.961651-129.470984 129.462857v184.970159a18.497016 18.497016 0 0 1-36.994032 0v-184.970159C277.438984 74.524444 351.963429 0 443.895873 0c91.932444 0 166.456889 74.524444 166.456889 166.465016V351.410794a18.497016 18.497016 0 0 1-18.488889 18.497016z" fill="#FF4977" p-id="1240"></path><path d="M628.866032 1017.270857H0l36.994032-739.831873h554.877968z" fill="#FF7497" p-id="1241"></path><path d="M776.825905 1017.270857H628.866032l-36.985905-739.831873h147.959873z" fill="#FF0F4B" p-id="1242"></path><path d="M703.926857 924.769524c-0.365714 0.024381-0.731429 0.024381-1.10527 0.024381-9.784889 0-17.879365-7.639365-18.448254-17.408l-36.994031-628.866032c-0.024381-0.365714-0.024381-0.715175-0.024381-1.080889h37.042793l36.920889 627.777016a18.51327 18.51327 0 0 1-17.391746 19.553524z" fill="#FF4977" p-id="1243"></path><path d="M1072.761905 1017.270857h-147.968l-2.308064-29.891047v-0.024381L887.791746 536.380952h147.968l34.100825 443.180699v0.024381z" fill="#1DADB3" p-id="1244"></path><path d="M1000.626794 924.704508a18.497016 18.497016 0 0 1-20.252445-16.554667l-0.666412-6.615365-36.32762-363.300571a16.587175 16.587175 0 0 1-0.089396-1.852953h37.083428l36.343873 363.471238 0.463238 4.599873a18.497016 18.497016 0 0 1-16.554666 20.252445z" fill="#149095" p-id="1245"></path><path d="M1072.761905 1017.270857h-22.243556l-51.736381-77.637079-51.744508 77.637079h-22.243555l-2.308064-29.891047v-0.024381l57.213969-85.820953 3.681523-5.501968a18.521397 18.521397 0 0 1 30.80127 0l2.535619 3.819682 53.150476 79.709461v0.024381l2.893207 37.684825z" fill="#149095" p-id="1246"></path><path d="M924.793905 1017.270857H443.904L480.889905 536.380952h406.918095z" fill="#4AE0E6" p-id="1247"></path><path d="M702.845968 887.799873H665.84381c-51.053714-0.056889-92.420063-41.423238-92.48508-92.476952V647.354921a18.497016 18.497016 0 0 1 36.994032 0v147.968a55.547937 55.547937 0 0 0 55.491048 55.491047h36.994031a55.547937 55.547937 0 0 0 55.482921-55.491047V647.354921a18.497016 18.497016 0 0 1 36.994032 0v147.968c-0.056889 51.053714-41.431365 92.420063-92.48508 92.485079z" fill="#64F9FF" p-id="1248"></path><path d="M184.962032 369.915937a18.497016 18.497016 0 0 1-18.497016-18.497016V166.465016C166.465016 74.524444 240.98946 0 332.930032 0c91.932444 0 166.456889 74.524444 166.456889 166.465016V351.410794a18.497016 18.497016 0 0 1-36.985905 0V166.465016c0-71.509333-57.969778-129.470984-129.470984-129.470984-71.509333 0-129.479111 57.961651-129.479111 129.462857v184.970159a18.497016 18.497016 0 0 1-18.488889 18.488889z" fill="#FFA7BD" p-id="1249"></path></svg>