<?xml version="1.0" standalone="no"?><!DOCTYPE svg PUBLIC "-//W3C//DTD SVG 1.1//EN" "http://www.w3.org/Graphics/SVG/1.1/DTD/svg11.dtd"><svg t="1716276259922" class="icon" viewBox="0 0 1024 1024" version="1.1" xmlns="http://www.w3.org/2000/svg" p-id="1531" xmlns:xlink="http://www.w3.org/1999/xlink" width="200" height="200"><path d="M512 0C229.317486 0 0 229.200457 0 512c0 209.627429 126.098286 389.763657 306.497829 468.962743-1.462857-35.722971-0.2048-78.701714 8.894171-117.613714l65.857829-278.9376s-16.325486-32.680229-16.325486-81.071543c0-75.863771 44.032-132.534857 98.772114-132.534857 46.518857 0 69.046857 34.991543 69.046857 76.946285 0 46.752914-29.871543 116.765257-45.231543 181.628343-12.814629 54.359771 27.209143 98.655086 80.808229 98.655086 97.016686 0 162.347886-124.606171 162.347886-272.237714 0-112.201143-75.5712-196.169143-213.050515-196.169143-155.296914 0-252.021029 115.799771-252.021028 245.116343 0 44.675657 13.1072 76.127086 33.704228 100.439771 9.508571 11.264 10.795886 15.711086 7.314286 28.584229-2.340571 9.362286-8.045714 32.095086-10.386286 41.106285-3.423086 12.9024-13.897143 17.6128-25.6 12.785372-71.592229-29.198629-104.886857-107.52-104.886857-195.642515 0-145.408 122.6752-319.868343 365.919086-319.868342 195.496229 0 324.169143 141.546057 324.169143 293.332114 0 200.879543-111.645257 350.910171-276.304457 350.910171-55.208229 0-107.256686-29.871543-125.045029-63.751314 0 0-29.783771 117.906286-35.986286 140.726857-10.8544 39.409371-32.124343 78.935771-51.580342 109.626514 46.08 13.575314 94.734629 21.006629 145.086171 21.006629C794.799543 1024 1024 794.799543 1024 512S794.799543 0 512 0z" fill="#2c2c2c" p-id="1532"></path></svg>